<?xml version="1.0" encoding="utf-8"?>
<!-- Generator: Adobe Illustrator 15.1.0, SVG Export Plug-In  -->
<!DOCTYPE svg PUBLIC "-//W3C//DTD SVG 1.1//EN" "http://www.w3.org/Graphics/SVG/1.1/DTD/svg11.dtd" [
	<!ENTITY ns_flows "http://ns.adobe.com/Flows/1.0/">
]>
<svg version="1.1"
	 xmlns="http://www.w3.org/2000/svg" xmlns:xlink="http://www.w3.org/1999/xlink" xmlns:a="http://ns.adobe.com/AdobeSVGViewerExtensions/3.0/"
	 x="0px" y="0px" width="512px" height="512px" viewBox="-21.3 -66.876 512 512"
	 overflow="visible" enable-background="new -21.3 -66.876 512 512" xml:space="preserve">
<defs>
</defs>
<path fill="#D40000" d="M237.041,406.356h-81.136L72.783,229.842c-1.592-3.399-4.111-10.858-7.557-22.383h-0.994v198.897H0V0.062
	h64.232v192.097h0.994c1.591-5.286,4.242-12.842,7.954-22.666L151.928,0.062h76.561L129.06,193.859L237.041,406.356z"/>
<path fill="#2B0000" d="M252.808,406.162V0h104.845c31.949,0,57.261,8.595,75.926,25.775c18.664,17.184,27.997,39.56,27.997,67.127
	c0,23.04-5.3,43.052-15.899,60.046c-10.601,16.995-25.271,29.081-44.012,36.254v1.133c22.732,3.213,40.9,13.552,54.496,31.015
	c13.595,17.468,20.393,40.176,20.393,68.119c0,34.744-11.14,62.878-33.411,84.404c-22.277,21.526-50.389,32.289-84.338,32.289
	H252.808z M307.419,54.099v115.561h35.485c19.047,0,33.988-5.523,44.818-16.569c10.831-11.046,16.245-26.668,16.245-46.875
	c0-34.741-18.895-52.116-56.685-52.116H307.419z M307.419,223.758v128.589h46.776c20.429,0,36.213-5.806,47.354-17.418
	c11.136-11.614,16.706-27.616,16.706-48.009c0-42.105-23.734-63.162-71.202-63.162H307.419z"/>
</svg>
