<?xml version="1.0" standalone="no"?>
<!DOCTYPE svg PUBLIC "-//W3C//DTD SVG 20010904//EN"
 "http://www.w3.org/TR/2001/REC-SVG-20010904/DTD/svg10.dtd">
<svg version="1.0" xmlns="http://www.w3.org/2000/svg"
 width="512.000000pt" height="512.000000pt" viewBox="0 0 512.000000 512.000000"
 preserveAspectRatio="xMidYMid meet">
<metadata>
Created by potrace 1.11, written by Peter Selinger 2001-2013
</metadata>
<g transform="translate(0.000000,512.000000) scale(0.100000,-0.100000)"
fill="#000000" stroke="none">
<path d="M155 5113 c-35 -9 -85 -49 -118 -94 l-32 -43 -3 -2381 c-2 -1688 0
-2395 8 -2431 7 -35 22 -63 48 -91 72 -80 -152 -73 2510 -73 2298 0 2378 1
2418 19 56 25 82 49 107 96 l22 40 3 2385 c2 1754 0 2395 -8 2424 -15 51 -44
89 -94 123 l-41 28 -2400 1 c-1320 1 -2409 0 -2420 -3z m2141 -542 c52 -35 49
73 50 -1791 1 -1405 -1 -1740 -12 -1761 -31 -62 18 -59 -895 -59 -813 0 -832
1 -859 20 -15 11 -32 32 -37 47 -8 22 -12 3409 -5 3484 3 23 49 67 75 71 12 2
391 3 842 3 685 0 823 -2 841 -14z m2246 -5 c17 -11 31 -33 37 -55 14 -58 9
-2191 -6 -2217 -32 -56 10 -54 -890 -54 -805 0 -829 0 -860 20 -22 13 -35 31
-41 57 -6 23 -9 474 -8 1118 1 1036 2 1081 20 1108 10 15 32 31 50 35 17 5
400 8 851 8 782 -1 821 -2 847 -20z"/>
</g>
</svg>
