<svg version="1" xmlns="http://www.w3.org/2000/svg" width="933.333" height="933.333" viewBox="0 0 700.000000 700.000000"><path d="M29.4 91.9c-.2.2-.4 125.2-.4 277.8V647h88V510.8c0-81.7.4-135.8.9-135.2.5.5 2.2 5.2 3.9 10.4 3.7 11.9 7.5 21.3 14.5 36 5.8 12.2 10.9 23.1 17.5 37 2.1 4.7 9.5 20.2 16.2 34.5 11.8 25.1 15.5 32.9 23.5 50 2.1 4.4 6.8 14.5 10.6 22.4 3.8 7.9 6.9 14.5 6.9 14.6 0 .3 3.1 6.9 16 34 1.6 3.3 5.7 12 9.1 19.2l6.3 13.3h55.3c61.9 0 56.2.8 51.8-7.4-1.2-2.3-11.1-21.7-22-43.1-32-63-47.8-94.2-63.5-125-8.1-16-22.3-43.9-31.5-62-9.2-18.2-19-37.5-21.8-42.9l-5.1-9.9 11.2-22.1c6.2-12.2 15.7-30.7 21-41.1 5.4-10.5 15.6-30.3 22.6-44 7.1-13.8 17-33.1 22.1-43 13.5-26.2 28.2-54.9 41.3-80.5 6.3-12.4 12.8-24.9 14.3-27.9 1.6-3 2.9-5.7 2.9-6 0-.7-103.6-.8-104.3-.1-.2.3-4 8.4-8.5 18-4.4 9.6-10 21.8-12.5 27-5.2 11.1-10 21.5-13.2 28.5-1.3 2.7-4.4 9.5-7 15-2.6 5.5-8.7 18.5-13.5 29-4.8 10.4-10.7 23-13 28-7.3 15.5-11.1 23.8-14.2 30.5-4.3 9.4-7.6 16.4-16.3 35-7.5 16-13.7 31.3-17.6 43.3-1 3.2-2.2 6.4-2.6 7-.5.7-1-58-1.3-130.3l-.5-131.5H73.2c-23.9 0-43.5.2-43.8.4zM375 95c-.1 4.6-.1 531.9 0 543.2v8.7l81.3-.3c83.6-.3 85.5-.4 105.2-4.5 18.3-3.9 40.3-13.8 56.1-25.2 11.1-8 27.1-23.9 34.7-34.6 15.2-21.3 23.9-45.4 27.3-74.9 1.4-11.7.7-42.5-1.1-49.4-.2-.8-.7-3.5-1-6-.8-5.3-3.6-16.3-6.3-24.1-3.7-10.6-14.3-29.6-19.7-35.5-.5-.6-2.4-2.6-4-4.5-13.5-15.1-30-25.6-50-31.8-9.4-2.9-13.7-3.8-17.7-4-3.5-.2-1.6-1.8 6-5.3 33.7-15.1 59.3-46.9 69.2-85.6 6.2-24.6 6.5-56.5.6-78.6-7.4-27.9-24.9-51.9-49.8-68.3-11.9-7.9-34.2-16.6-49.3-19.3-3.3-.5-6.9-1.2-8-1.4-8.4-1.6-27.8-2-95.7-2.1l-77.8-.1V95zm147.4 71.5c6.1 1.1 6.7 1.2 13.6 3 12.6 3.2 26.9 12.7 33.5 22.2 5.2 7.5 9.2 18.5 11.1 30.8.6 3.7.5 26-.1 30-3.7 25.2-11.8 40.5-29 55-8.4 7-27 13.9-41.3 15.1-4.2.4-19.6.7-34.2.7l-26.5.1-.1-78.5c0-43.1.1-78.7.2-79 .4-.8 68-.3 72.8.6zm2.1 231.9c9.8 1.4 19.9 3.8 26.9 6.3 27.4 9.7 44.2 31 48.4 61.3.9 6.2.8 28.2-.1 35.5-1.5 12.5-6.7 27.3-12.7 36.1-1.6 2.5-3 4.7-3 4.9 0 .3-2.3 3-5.2 6-5.5 6-15.4 13-22.8 16.3-16.5 7.3-24.5 8.2-69.6 8.2h-37l.2-87.3c.1-47.9.2-87.5.3-87.8.2-.8 68.4-.3 74.6.5z"/></svg>